<svg width="502" height="179" viewBox="0 0 502 179" fill="none" xmlns="http://www.w3.org/2000/svg">
<g clip-path="url(#clip0_13_12)">
<path d="M164.698 42.6281L145.463 90.477L153.547 42.6281H132.501L119.119 144.342H141.839L186.303 42.6281H164.698ZM195.361 101.39H213.62L218.917 83.3419H200.657L207.208 60.9563H225.886L231.322 42.6281H191.458L161.629 144.342H200.797L207.766 125.035H188.391L195.361 101.39ZM76.3546 165.174C65.4094 165.174 55.1047 162.391 46.0894 157.484L40.7163 168.633C51.3554 174.344 63.4831 177.577 76.3546 177.577C100.684 177.577 122.35 166.02 136.331 148.023H119.721C108.303 158.67 93.0795 165.174 76.3546 165.174ZM89.8516 126.618V137.128L115.611 117.276L90.6826 93.7537V103.93H64.0911L90.6826 40.5391V87.2476L112.214 107.691L112.749 0H89.1872L3.10064 178.438L31.686 179L54.7849 126.618H89.8516ZM20.65 132.357C15.284 122.838 12.2168 111.812 12.2168 100.059C12.2168 67.323 36.0135 40.2321 67.0026 35.6356L73.2868 22.6096C32.5404 24.2455 0 58.2922 0 100.059C0 116.822 5.24183 132.343 14.1512 145.024L20.65 132.357ZM112.172 144.342V125.127L89.8256 144.342H112.172ZM429.94 96.0736C435.097 96.0736 438.024 92.9955 438.861 90.0575L449.036 55.4999C450.987 48.7843 448.06 42.6284 439 42.6284H400.669L370.84 144.342H391.888L404.572 100.971H411.541C414.05 100.971 414.329 102.79 413.771 104.469L402.063 144.343H423.11L433.982 107.267C436.213 99.9911 433.146 96.6333 429.94 96.0736ZM426.595 63.1951L421.02 82.0827C420.044 85.1608 418.232 86.0002 416.141 86.0002H408.893L416.838 58.9976H423.389C426.595 58.9976 427.431 60.5365 426.595 63.1951ZM268.118 42.6281L256.549 81.9425L255.852 42.6281H237.871L208.043 144.342H227.836L239.962 103.768L241.774 144.342H258.64L288.468 42.6281H268.118ZM478.165 60.9563H496.564L502 42.6281H469.524C464.506 42.6281 459.488 44.0272 457.118 51.1626L445.549 90.6169C443.459 98.032 445.549 102.929 454.331 102.929H465.481C466.736 102.929 466.736 103.488 466.457 104.328L461.579 121.537C460.742 124.055 460.185 125.035 456.282 125.035H438.719L433.005 144.342H467.433C471.754 144.342 476.353 142.243 477.469 138.186L489.037 98.7316C491.964 88.798 487.225 84.6008 479.699 84.6008H468.408L474.402 63.8943C475.099 61.6559 476.632 60.9563 478.165 60.9563ZM311.326 83.3419L306.029 101.39H310.35L302.684 127.413H295.576C292.788 127.413 291.533 126.294 292.37 123.356L309.793 64.0341C310.49 61.5157 311.605 60.956 313.835 60.956H334.325L339.761 42.6278H306.169C299.478 42.6278 294.879 44.5865 292.648 52.1415L271.183 125.454C267.281 138.885 275.225 144.342 284.704 144.342H297.666L295.436 152.317L318.853 140.424L335.579 83.341H311.326V83.3419ZM358.159 101.39H376.418L381.715 83.3419H363.455L370.006 60.9563H388.684L394.12 42.6281H354.256L324.427 144.342H363.594L370.564 125.035H351.189L358.159 101.39Z" fill="#D40317"/>
</g>
<defs>
<clipPath id="clip0_13_12">
<rect width="502" height="179" fill="white"/>
</clipPath>
</defs>
</svg>
